<?xml version="1.0" encoding="UTF-8" standalone="no"?>
<!DOCTYPE svg PUBLIC "-//W3C//DTD SVG 1.1//EN" "http://www.w3.org/Graphics/SVG/1.1/DTD/svg11.dtd">
<svg version="1.1" xmlns="http://www.w3.org/2000/svg" xmlns:xlink="http://www.w3.org/1999/xlink" preserveAspectRatio="xMidYMid meet" viewBox="0 0 640 640" width="24" height="24"><defs><path d="M630 320C630 491.09 491.09 630 320 630C148.91 630 10 491.09 10 320C10 148.9 148.91 10 320 10C491.09 10 630 148.9 630 320Z" id="dwphbIh4A"></path><path d="M320 363.13C303.77 353.78 285.08 348 265 348C204.22 348 155 397.23 155 458C155 518.78 204.22 568 265 568C325.78 568 375 518.78 375 458C375 439.67 375 348 375 183L485 183L485 73L320 73C320 247.08 320 343.78 320 363.13Z" id="a2MABMC4Jz"></path></defs><g><g><g><use xlink:href="#dwphbIh4A" opacity="1" fill="#ffffff" fill-opacity="1"></use></g><g><use xlink:href="#a2MABMC4Jz" opacity="1" fill="#000000" fill-opacity="1"></use><g><use xlink:href="#a2MABMC4Jz" opacity="1" fill-opacity="0" stroke="#000000" stroke-width="1" stroke-opacity="0"></use></g></g></g></g></svg>