<?xml version="1.0" encoding="UTF-8" standalone="no"?>
<!DOCTYPE svg PUBLIC "-//W3C//DTD SVG 1.1//EN" "http://www.w3.org/Graphics/SVG/1.1/DTD/svg11.dtd">
<svg version="1.1" xmlns="http://www.w3.org/2000/svg" xmlns:xlink="http://www.w3.org/1999/xlink" preserveAspectRatio="xMidYMid meet" viewBox="0 0 640 640" width="24" height="24"><defs><path d="M152.43 337.6C142.27 327.45 125.87 327.45 115.71 337.6C105.55 347.76 105.55 364.17 115.71 374.33C126.6 385.21 213.69 472.3 224.57 483.19C234.73 493.35 251.14 493.35 261.29 483.19C288.85 455.63 509.28 235.2 536.84 207.65C546.99 197.49 546.99 181.08 536.84 170.93C526.68 160.77 510.27 160.77 500.11 170.93C482.96 188.06 397.19 273.75 242.8 427.98C188.58 373.75 158.46 343.63 152.43 337.6Z" id="a1r46Y1t24"></path><mask id="maskb4IrsMB1i" x="68.09" y="123.31" width="516.36" height="407.5" maskUnits="userSpaceOnUse"><rect x="68.09" y="123.31" width="516.36" height="407.5" fill="white"></rect><use xlink:href="#a1r46Y1t24" opacity="1" fill="black"></use></mask></defs><g><g><g><use xlink:href="#a1r46Y1t24" opacity="1" fill="#000000" fill-opacity="1"></use><g mask="url(#maskb4IrsMB1i)"><use xlink:href="#a1r46Y1t24" opacity="1" fill-opacity="0" stroke="#ffffff" stroke-width="40" stroke-opacity="1"></use></g></g></g></g></svg>