<?xml version="1.0" encoding="UTF-8" standalone="no"?>
<!DOCTYPE svg PUBLIC "-//W3C//DTD SVG 1.1//EN" "http://www.w3.org/Graphics/SVG/1.1/DTD/svg11.dtd">
<svg version="1.1" xmlns="http://www.w3.org/2000/svg" xmlns:xlink="http://www.w3.org/1999/xlink" preserveAspectRatio="xMidYMid meet" viewBox="0 0 640 640" width="24" height="24"><defs><path d="M320 127C250.16 127 189.5 166.63 159.29 224.63C86.55 232.36 30 293.99 30 368.66C30 448.65 95.01 513.65 175 513.65C206.42 513.65 457.75 513.65 489.17 513.65C555.87 513.65 610 459.52 610 392.82C610 329.03 560.46 277.31 497.63 272.96C481.19 189.59 407.97 127 320 127ZM368.33 441.16L271.67 441.16L271.67 344.49L199.17 344.49L320 223.66L440.83 344.49L368.33 344.49L368.33 441.16Z" id="b906quq7j"></path></defs><g><g><g><use xlink:href="#b906quq7j" opacity="1" fill="#000000" fill-opacity="1"></use><g><use xlink:href="#b906quq7j" opacity="1" fill-opacity="0" stroke="#000000" stroke-width="1" stroke-opacity="0"></use></g></g></g></g></svg>